<?xml version="1.0" encoding="UTF-8"?>
<svg xmlns="http://www.w3.org/2000/svg" xmlns:xlink="http://www.w3.org/1999/xlink" version="1.2" >
<font id="Adena Regular">
<font-face  font-family="Adena" units-per-em="1024" ascent="975" descent="-300" font-style="normal" font-weight="400" font-stretch="normal" cap-height="1032" x-height="488" underline-position="0" underline-thickness="0" />
<missing-glyph  horiz-adv-x="512" d="" />
<glyph glyph-name="NULL" d="" />
<glyph glyph-name="CR" unicode="&#xd;" horiz-adv-x="256" d="" />
<glyph glyph-name="space" unicode="&#x20;" horiz-adv-x="250" d="" />
<glyph glyph-name="zero" unicode="0" horiz-adv-x="700" d="M36 375 C36 120 138 -9 341 -9 C544 -9 645 120 645 375 C645 617 533 759 341 759 C149 759 36 617 36 375 L36 375 Z M233 375 C233 568 273 680 341 680 C409 680 448 568 448 375 C448 172 413 70 341 70 C269 70 233 172 233 375 L233 375 Z " />
<glyph glyph-name="one" unicode="1" horiz-adv-x="477" d="M50 450 L186 589 L186 100 L94 100 L94 0 L469 0 L469 100 L377 100 L377 750 L229 750 L50 569 L50 450 L50 450 Z " />
<glyph glyph-name="two" unicode="2" horiz-adv-x="612" d="M53 0 L577 0 L577 275 L477 275 L477 183 L194 183 C221 227 259 258 318 290 C640 467 641 759 314 759 C165 759 65 669 65 535 C65 479 81 422 108 389 L195 433 C110 543 185 614 263 614 C319 614 377 578 377 490 C377 439 307 368 202 309 C94 250 53 190 53 0 L53 0 Z " />
<glyph glyph-name="three" unicode="3" horiz-adv-x="600" d="M30 245 C30 93 136 -9 293 -9 C449 -9 555 77 555 208 C555 295 519 370 463 407 C499 439 522 499 522 567 C522 682 427 759 282 759 C138 759 41 671 41 540 L232 540 C232 624 251 680 279 680 C319 680 346 628 346 551 C346 496 323 461 288 461 L208 461 L208 316 L268 316 C319 316 351 276 351 215 C351 132 328 78 293 78 C253 78 227 145 227 245 L30 245 L30 245 Z " />
<glyph glyph-name="four" unicode="4" horiz-adv-x="595" d="M25 259 L25 183 L107 184 L295 184 L295 100 L203 100 L203 0 L577 0 L577 100 L485 100 L485 184 L575 184 L575 271 L485 271 L485 750 L337 750 L25 259 L25 259 Z M121 271 L295 545 L295 271 L121 271 L121 271 Z " />
<glyph glyph-name="five" unicode="5" horiz-adv-x="596" d="M31 245 C31 93 137 -9 294 -9 C450 -9 556 88 556 235 C556 395 442 501 274 501 C234 501 199 498 174 494 L180 563 L492 563 L507 781 L407 781 L405 750 L100 750 L66 348 L159 327 C170 338 201 346 238 346 C415 346 352 78 294 78 C254 78 228 145 228 245 L31 245 L31 245 Z " />
<glyph glyph-name="six" unicode="6" horiz-adv-x="583" d="M40 366 C40 118 131 -9 311 -9 C473 -9 581 93 581 245 C581 393 477 492 321 492 C276 492 246 472 238 440 C241 585 268 668 311 683 C365 699 437 643 461 584 L533 631 C501 708 412 759 311 759 C131 759 40 602 40 366 L40 366 Z M303 412 C347 412 377 345 377 245 C377 140 351 70 311 70 C271 70 247 144 240 291 C240 292 240 294 239 295 C239 311 238 326 238 345 C243 388 266 412 303 412 L303 412 Z " />
<glyph glyph-name="seven" unicode="7" horiz-adv-x="490" d="M30 750 L30 475 L130 475 L130 567 L397 567 C158 336 65 176 65 0 L276 0 C276 266 332 425 480 567 L480 750 L30 750 L30 750 Z " />
<glyph glyph-name="eight" unicode="8" horiz-adv-x="629" d="M40 201 C40 75 123 -9 307 -9 C467 -9 574 56 574 201 C574 300 526 371 421 400 C498 425 545 478 545 566 C545 682 464 759 307 759 C166 759 72 693 72 566 C72 486 110 427 194 400 C98 373 40 310 40 201 L40 201 Z M244 216 C244 313 268 357 307 357 C350 357 370 302 370 218 C370 115 346 70 307 70 C264 70 244 128 244 216 L244 216 Z M248 550 C248 637 272 680 307 680 C348 680 369 629 369 550 C369 475 344 443 307 443 C266 443 248 486 248 550 L248 550 Z " />
<glyph glyph-name="nine" unicode="9" horiz-adv-x="583" d="M50 505 C50 357 153 258 309 258 C356 258 385 278 394 310 C391 163 364 67 320 67 C255 67 195 106 170 166 L98 119 C130 42 219 -9 320 -9 C500 -9 591 148 591 384 C591 632 500 759 320 759 C158 759 50 657 50 505 L50 505 Z M254 505 C254 610 280 680 320 680 C365 680 390 587 393 400 C386 361 364 338 328 338 C284 338 254 405 254 505 L254 505 Z " />
<glyph glyph-name="A" unicode="A" horiz-adv-x="842" d="M261 0 L261 100 L202 100 C210 127 220 156 229 185 L520 185 L549 100 L490 100 L490 0 L844 0 L844 100 L752 100 L530 750 L225 750 L225 650 L283 650 L98 100 L5 100 L5 0 L261 0 L261 0 Z M374 622 L495 260 L254 260 C297 392 342 526 374 622 L374 622 Z " />
<glyph glyph-name="B" unicode="B" horiz-adv-x="773" d="M463 0 C661 0 738 60 738 215 C738 327 662 403 542 420 C621 443 667 490 667 553 C667 694 590 750 392 750 L26 750 L26 650 L118 650 L118 100 L26 100 L26 0 L463 0 L463 0 Z M428 369 C571 369 575 76 435 76 L308 76 L308 369 L428 369 L428 369 Z M396 674 C497 674 508 443 379 443 L308 443 L308 674 L396 674 L396 674 Z " />
<glyph glyph-name="C" unicode="C" horiz-adv-x="692" d="M35 375 C35 168 188 -9 420 -9 C527 -9 626 58 672 158 L600 218 C560 129 489 70 420 70 C311 70 239 210 239 375 C239 540 311 680 420 680 C477 680 549 621 600 532 L672 592 L672 684 L597 684 C544 731 480 759 420 759 C188 759 35 582 35 375 L35 375 Z " />
<glyph glyph-name="D" unicode="D" horiz-adv-x="813" d="M398 0 C642 0 758 122 758 375 C758 624 627 750 368 750 L26 750 L26 650 L118 650 L118 100 L26 100 L26 0 L398 0 L398 0 Z M308 674 L372 674 C493 674 554 574 554 375 C554 171 503 76 391 76 L308 76 L308 674 L308 674 Z " />
<glyph glyph-name="E" unicode="E" horiz-adv-x="733" d="M26 750 L26 650 L118 650 L118 100 L26 100 L26 0 L683 0 L683 171 L583 171 L583 79 L308 79 L308 349 L548 349 L548 257 L648 257 L648 517 L548 517 L548 425 L308 425 L308 671 L568 671 L568 599 L668 599 L668 750 L26 750 L26 750 Z " />
<glyph glyph-name="F" unicode="F" horiz-adv-x="698" d="M26 750 L26 650 L118 650 L118 100 L26 100 L26 0 L400 0 L400 100 L308 100 L308 349 L538 349 L538 257 L638 257 L638 517 L538 517 L538 425 L308 425 L308 671 L568 671 L568 599 L668 599 L668 750 L26 750 L26 750 Z " />
<glyph glyph-name="G" unicode="G" horiz-adv-x="747" d="M35 375 C35 145 199 -9 443 -9 C534 -9 627 31 702 94 L702 448 L404 448 L404 368 L609 368 L609 142 C558 99 496 70 443 70 C320 70 239 192 239 375 C239 558 299 680 443 680 C518 680 559 621 610 532 L682 592 L682 684 L615 684 C570 731 515 759 443 759 C175 759 35 605 35 375 L35 375 Z " />
<glyph glyph-name="H" unicode="H" horiz-adv-x="933" d="M26 100 L26 0 L400 0 L400 100 L308 100 L308 355 L611 355 L611 100 L519 100 L519 0 L894 0 L894 100 L802 100 L802 650 L894 650 L894 750 L519 750 L519 650 L611 650 L611 435 L308 435 L308 650 L400 650 L400 750 L26 750 L26 650 L118 650 L118 100 L26 100 L26 100 Z " />
<glyph glyph-name="I" unicode="I" horiz-adv-x="462" d="M49 100 L49 0 L423 0 L423 100 L331 100 L331 650 L423 650 L423 750 L49 750 L49 650 L141 650 L141 100 L49 100 L49 100 Z " />
<glyph glyph-name="J" unicode="J" horiz-adv-x="705" d="M33 277 L34 211 C34 58 112 -9 288 -9 C456 -9 543 83 543 220 L543 650 L635 650 L635 750 L260 750 L260 650 L352 650 L352 220 C352 136 331 81 288 81 C243 81 223 137 223 266 L224 310 L33 277 L33 277 Z " />
<glyph glyph-name="K" unicode="K" horiz-adv-x="748" d="M-21 0 L354 0 L354 100 L262 100 L262 292 L316 348 L456 100 L421 100 L421 0 L774 0 L774 100 L682 100 L459 495 L610 650 L707 650 L707 750 L487 750 L487 650 L500 650 C433 575 337 474 262 397 L262 650 L354 650 L354 750 L-21 750 L-21 650 L71 650 L71 100 L-21 100 L-21 0 L-21 0 Z " />
<glyph glyph-name="L" unicode="L" horiz-adv-x="732" d="M49 750 L49 650 L141 650 L141 100 L49 100 L49 0 L656 0 L656 171 L556 171 L556 79 L331 79 L331 650 L423 650 L423 750 L49 750 L49 750 Z " />
<glyph glyph-name="M" unicode="M" horiz-adv-x="989" d="M142 650 L142 100 L50 100 L50 0 L328 0 L328 100 L236 100 L236 592 L371 0 L540 0 L675 606 L675 100 L583 100 L583 0 L950 0 L950 100 L858 100 L858 650 L950 650 L950 750 L616 750 L496 200 L376 750 L50 750 L50 650 L142 650 L142 650 Z " />
<glyph glyph-name="N" unicode="N" horiz-adv-x="829" d="M141 650 L141 100 L49 100 L49 0 L330 0 L330 100 L238 100 L238 518 L454 0 L698 0 L698 650 L790 650 L790 750 L509 750 L509 650 L601 650 L601 155 L352 750 L49 750 L49 650 L141 650 L141 650 Z " />
<glyph glyph-name="O" unicode="O" horiz-adv-x="814" d="M40 375 C40 145 184 -9 400 -9 C615 -9 759 145 759 375 C759 595 604 759 400 759 C195 759 40 595 40 375 L40 375 Z M244 375 C244 549 312 680 400 680 C488 680 555 549 555 375 C555 192 493 70 400 70 C306 70 244 192 244 375 L244 375 Z " />
<glyph glyph-name="P" unicode="P" horiz-adv-x="671" d="M400 0 L400 100 L308 100 L308 307 L310 307 C526 307 636 380 636 525 C636 674 526 750 310 750 L26 750 L26 650 L118 650 L118 100 L26 100 L26 0 L400 0 L400 0 Z M308 674 C399 673 445 623 445 525 C445 430 401 383 314 383 L308 383 L308 674 L308 674 Z " />
<glyph glyph-name="Q" unicode="Q" horiz-adv-x="814" d="M40 375 C40 145 184 -9 400 -9 C436 -9 469 -5 500 3 L550 -90 L668 10 L620 61 C708 128 759 238 759 375 C759 595 604 759 400 759 C195 759 40 595 40 375 L40 375 Z M400 680 C488 680 555 549 555 375 C555 291 542 220 519 168 L475 215 L415 163 L456 87 C439 76 420 70 400 70 C306 70 244 192 244 375 C244 549 312 680 400 680 L400 680 Z " />
<glyph glyph-name="R" unicode="R" horiz-adv-x="717" d="M380 0 L380 100 L308 100 L308 258 C370 180 459 64 515 0 L716 0 L716 100 L620 100 L464 342 C579 369 636 430 636 525 C636 674 526 750 310 750 L26 750 L26 650 L118 650 L118 100 L26 100 L26 0 L380 0 L380 0 Z M308 674 C399 673 445 623 445 525 C445 444 401 403 313 403 L308 403 L308 674 L308 674 Z " />
<glyph glyph-name="S" unicode="S" horiz-adv-x="689" d="M21 544 C21 407 121 321 317 290 C553 250 490 76 381 76 C278 76 188 126 143 223 L60 166 L60 74 L130 74 C198 14 292 -9 381 -9 C561 -9 654 79 654 211 C654 360 558 451 369 482 C132 522 196 672 341 672 C405 672 482 642 555 561 L624 624 L624 716 L524 716 L524 703 C456 740 378 759 298 759 C133 759 21 673 21 544 L21 544 Z " />
<glyph glyph-name="T" unicode="T" horiz-adv-x="595" d="M10 750 L10 579 L110 579 L110 671 L202 671 L202 100 L110 100 L110 0 L485 0 L485 100 L393 100 L393 671 L485 671 L485 579 L585 579 L585 750 L10 750 L10 750 Z " />
<glyph glyph-name="U" unicode="U" horiz-adv-x="862" d="M19 750 L19 650 L111 650 L111 287 C111 91 216 -9 424 -9 C631 -9 736 92 736 291 L736 650 L828 650 L828 750 L547 750 L547 650 L639 650 L639 308 C639 171 540 73 449 73 C373 73 301 144 301 320 L301 650 L393 650 L393 750 L19 750 L19 750 Z " />
<glyph glyph-name="V" unicode="V" horiz-adv-x="859" d="M28 750 L28 650 L120 650 L334 0 L514 0 L725 650 L817 650 L817 750 L560 750 L560 650 L621 650 L468 146 L321 650 L384 650 L384 750 L28 750 L28 750 Z " />
<glyph glyph-name="W" unicode="W" horiz-adv-x="1049" d="M13 750 L13 650 L105 650 L223 0 L406 0 L516 524 L624 0 L807 0 L928 650 L1021 650 L1021 750 L750 750 L750 650 L826 650 L758 236 L653 750 L470 750 L369 246 L307 650 L384 650 L384 750 L13 750 L13 750 Z " />
<glyph glyph-name="X" unicode="X" horiz-adv-x="875" d="M92 750 L92 650 L184 650 L361 343 L186 100 L94 100 L94 0 L327 0 L327 100 L307 100 L415 250 L502 100 L468 100 L468 0 L802 0 L802 100 L710 100 L531 410 L704 650 L796 650 L796 750 L563 750 L563 650 L583 650 L477 503 L392 650 L426 650 L426 750 L92 750 L92 750 Z " />
<glyph glyph-name="Y" unicode="Y" horiz-adv-x="712" d="M7 650 L100 650 L268 330 L268 100 L176 100 L176 0 L550 0 L550 100 L458 100 L458 360 L605 650 L698 650 L698 750 L464 750 L464 650 L507 650 L399 430 L290 650 L333 650 L333 750 L7 750 L7 650 L7 650 Z " />
<glyph glyph-name="Z" unicode="Z" horiz-adv-x="655" d="M610 0 L610 171 L510 171 L510 79 L270 79 L610 671 L610 750 L60 750 L60 579 L160 579 L160 671 L385 671 L45 79 L45 0 L610 0 L610 0 Z " />
<glyph glyph-name="a" unicode="a" horiz-adv-x="566" d="M40 132 C40 47 90 -9 218 -9 C262 -9 297 9 318 65 C334 4 384 0 536 0 L536 133 C493 133 491 135 491 172 L491 312 C491 468 408 529 283 529 C186 529 101 473 75 389 L159 362 C178 418 226 453 283 453 C300 453 311 435 311 388 C311 303 258 278 182 278 C97 277 40 220 40 132 L40 132 Z M220 138 C220 187 226 220 237 220 C266 220 291 224 311 239 L311 176 C303 84 280 55 246 55 C227 55 220 87 220 138 L220 138 Z " />
<glyph glyph-name="b" unicode="b" horiz-adv-x="653" d="M14 100 L14 0 L286 0 L286 71 C317 16 365 -9 425 -9 C532 -9 603 99 603 260 C603 421 532 529 425 529 C365 529 317 504 286 449 L286 750 L14 750 L14 650 L106 650 L106 100 L14 100 L14 100 Z M286 260 C286 393 329 453 394 453 C402 453 407 376 407 260 C407 152 399 81 388 81 C327 81 286 135 286 260 L286 260 Z " />
<glyph glyph-name="c" unicode="c" horiz-adv-x="531" d="M32 260 C32 74 148 -9 323 -9 C402 -9 472 45 501 125 L418 165 C397 105 359 67 323 67 C266 67 228 127 228 260 C228 397 266 457 323 457 C350 457 384 410 419 338 L500 378 L500 470 L440 470 C407 507 368 529 323 529 C148 529 32 446 32 260 L32 260 Z " />
<glyph glyph-name="d" unicode="d" horiz-adv-x="655" d="M239 -9 C311 -9 369 27 405 90 L405 0 L677 0 L677 100 L585 100 L585 750 L313 750 L313 650 L405 650 L405 430 C369 493 311 529 239 529 C115 529 32 421 32 260 C32 99 115 -9 239 -9 L239 -9 Z M228 260 C228 376 244 453 269 453 C352 453 405 376 405 260 C405 144 352 67 269 67 C244 67 228 144 228 260 L228 260 Z " />
<glyph glyph-name="e" unicode="e" horiz-adv-x="538" d="M32 260 C32 74 127 -9 270 -9 C390 -9 487 44 508 127 L421 160 C406 104 346 67 270 67 C246 67 229 123 228 250 L533 250 C533 417 464 529 283 529 C132 529 32 446 32 260 L32 260 Z M283 457 C324 457 344 402 351 314 L229 314 C236 413 255 457 283 457 L283 457 Z " />
<glyph glyph-name="f" unicode="f" horiz-adv-x="540" d="M382 0 L382 100 L290 100 L290 448 L500 448 L500 520 L290 520 L290 540 C290 636 303 674 335 674 L400 674 L400 582 L500 582 L500 750 L310 750 C166 750 110 691 110 540 L110 520 L30 520 L30 448 L110 448 L110 100 L18 100 L18 0 L382 0 L382 0 Z " />
<glyph glyph-name="g" unicode="g" horiz-adv-x="645" d="M32 260 C32 73 113 0 234 0 C305 0 360 34 395 94 L395 0 C395 -71 372 -117 309 -117 C217 -117 156 -100 156 -57 L56 -57 C56 -155 160 -193 317 -193 C504 -193 575 -85 575 76 L575 420 L667 420 L667 520 L395 520 L395 432 C360 493 305 529 234 529 C113 529 32 455 32 260 L32 260 Z M264 453 C343 453 395 376 395 260 C395 149 344 76 264 76 C243 76 228 128 228 260 C228 399 243 453 264 453 L264 453 Z " />
<glyph glyph-name="h" unicode="h" horiz-adv-x="687" d="M25 650 L117 650 L117 100 L25 100 L25 0 L353 0 L353 100 L297 100 L297 292 C297 381 321 441 356 441 C377 441 421 398 421 315 L421 0 L663 0 L663 100 L571 100 L571 315 C571 455 499 525 391 525 C352 525 320 499 297 454 L297 750 L25 750 L25 650 L25 650 Z " />
<glyph glyph-name="i" unicode="i" horiz-adv-x="343" d="M93 420 L93 100 L1 100 L1 0 L365 0 L365 100 L273 100 L273 520 L1 520 L1 420 L93 420 L93 420 Z M85 600 L281 600 L281 796 L85 796 L85 600 L85 600 Z " />
<glyph glyph-name="j" unicode="j" horiz-adv-x="365" d="M115 420 L115 0 C115 -59 104 -75 65 -75 L30 -75 L30 -151 L90 -151 C250 -151 295 -118 295 0 L295 520 L23 520 L23 420 L115 420 L115 420 Z M107 796 L107 600 L303 600 L303 796 L107 796 L107 796 Z " />
<glyph glyph-name="k" unicode="k" horiz-adv-x="539" d="M-22 100 L-22 0 L273 0 L273 100 L250 100 L250 216 C363 -1 363 -1 363 0 L560 0 L560 100 L487 100 L376 368 L421 420 L513 420 L513 520 L293 520 L293 420 L316 420 L250 337 L250 750 L-22 750 L-22 650 L70 650 L70 100 L-22 100 L-22 100 Z " />
<glyph glyph-name="l" unicode="l" horiz-adv-x="471" d="M401 0 L401 100 L309 100 L309 750 L37 750 L37 650 L129 650 L129 100 L37 100 L37 0 L401 0 L401 0 Z " />
<glyph glyph-name="m" unicode="m" horiz-adv-x="952" d="M20 520 L20 420 L112 420 L112 100 L20 100 L20 0 L324 0 L324 100 L292 100 L292 292 C292 381 317 441 356 441 C377 441 391 399 391 315 L391 100 L362 100 L362 0 L593 0 L593 100 L571 100 L571 292 C571 381 593 441 626 441 C647 441 661 399 661 315 L661 100 L639 100 L639 0 L933 0 L933 100 L841 100 L841 315 C841 455 769 525 661 525 C612 525 575 484 555 415 C528 488 470 525 391 525 C348 525 315 499 292 452 L292 520 L20 520 L20 520 Z " />
<glyph glyph-name="n" unicode="n" horiz-adv-x="677" d="M20 420 L112 420 L112 100 L20 100 L20 0 L324 0 L324 100 L292 100 L292 292 C292 381 316 441 351 441 C372 441 386 399 386 315 L386 100 L354 100 L354 0 L658 0 L658 100 L566 100 L566 315 C566 455 494 525 386 525 C347 525 315 499 292 454 L292 520 L20 520 L20 420 L20 420 Z " />
<glyph glyph-name="o" unicode="o" horiz-adv-x="590" d="M32 260 C32 99 111 -9 286 -9 C438 -9 540 74 540 260 C540 421 461 529 286 529 C134 529 32 446 32 260 L32 260 Z M228 260 C228 400 251 461 286 461 C326 461 344 381 344 260 C344 120 321 59 286 59 C246 59 228 139 228 260 L228 260 Z " />
<glyph glyph-name="p" unicode="p" horiz-adv-x="710" d="M71 -55 L71 -155 L435 -155 L435 -55 L343 -55 L343 71 C374 16 422 -9 482 -9 C589 -9 660 99 660 260 C660 421 589 529 482 529 C422 529 374 504 343 449 L343 520 L71 520 L71 420 L163 420 L163 -55 L71 -55 L71 -55 Z M343 260 C343 393 386 453 451 453 C486 453 491 376 491 260 C491 144 486 67 451 67 C386 67 343 127 343 260 L343 260 Z " />
<glyph glyph-name="q" unicode="q" horiz-adv-x="701" d="M239 -9 C311 -9 369 27 405 90 L405 -55 L313 -55 L313 -155 L677 -155 L677 -55 L585 -55 L585 420 L677 420 L677 520 L405 520 L405 430 C369 493 311 529 239 529 C115 529 32 421 32 260 C32 99 115 -9 239 -9 L239 -9 Z M228 260 C228 376 244 453 269 453 C352 453 405 376 405 260 C405 144 352 67 269 67 C244 67 228 144 228 260 L228 260 Z " />
<glyph glyph-name="r" unicode="r" horiz-adv-x="507" d="M25 520 L25 420 L117 420 L117 100 L25 100 L25 0 L389 0 L389 100 L297 100 L297 202 C297 334 345 420 468 420 L487 420 L487 520 L477 520 C385 520 329 475 297 398 L297 520 L25 520 L25 520 Z " />
<glyph glyph-name="s" unicode="s" horiz-adv-x="523" d="M32 132 L32 40 L110 40 C154 12 209 -4 272 -4 C404 -4 493 55 493 144 C493 236 423 312 283 340 C238 349 215 368 215 391 C215 430 229 456 250 456 C301 456 353 415 381 352 L457 385 L457 477 L385 477 C346 508 301 525 250 525 C126 525 43 464 43 376 C43 283 109 207 240 180 C289 169 314 151 314 128 C314 92 297 68 272 68 C200 68 139 105 116 164 L32 132 L32 132 Z " />
<glyph glyph-name="t" unicode="t" horiz-adv-x="345" d="M10 448 L57 448 L57 153 C57 37 62 0 186 0 L315 0 L315 76 L240 76 C235 76 237 94 237 153 L237 448 L315 448 L315 520 L237 520 L237 806 L57 655 L57 520 L10 520 L10 448 L10 448 Z " />
<glyph glyph-name="u" unicode="u" horiz-adv-x="692" d="M20 520 L20 420 L112 420 L112 228 C112 72 145 -9 265 -9 C325 -9 369 21 396 72 L396 0 L668 0 L668 100 L576 100 L576 520 L324 520 L324 420 L396 420 L396 182 C396 117 355 74 294 74 C287 74 292 125 292 228 L292 520 L20 520 L20 520 Z " />
<glyph glyph-name="v" unicode="v" horiz-adv-x="557" d="M-28 520 L-28 420 L64 420 L179 0 L355 0 L473 420 L565 420 L565 520 L335 520 L335 420 L374 420 L309 144 L259 420 L293 420 L293 520 L-28 520 L-28 520 Z " />
<glyph glyph-name="w" unicode="w" horiz-adv-x="885" d="M59 520 L59 420 L152 420 L246 0 L406 0 L479 336 L552 0 L712 0 L807 420 L899 420 L899 520 L640 520 L640 420 L714 420 L665 144 L596 520 L439 520 L366 158 L333 420 L397 420 L397 520 L59 520 L59 520 Z " />
<glyph glyph-name="x" unicode="x" horiz-adv-x="670" d="M-36 0 L183 0 L183 100 L170 100 L262 204 L333 100 L309 100 L309 0 L643 0 L643 100 L501 100 L357 311 L463 430 L547 430 L547 520 L340 520 L340 430 L371 430 L316 372 L276 430 L312 430 L312 520 L23 520 L23 427 L110 428 L218 269 L59 100 L-34 100 L-36 0 L-36 0 Z " />
<glyph glyph-name="y" unicode="y" horiz-adv-x="510" d="M-67 420 L25 420 L190 -66 L182 -95 C163 -167 136 -186 76 -186 L26 -186 L26 -267 L76 -267 C183 -267 223 -237 255 -130 L423 420 L516 420 L516 520 L287 520 L287 420 L323 420 L267 216 L219 420 L245 420 L245 520 L-67 520 L-67 420 L-67 420 Z " />
<glyph glyph-name="z" unicode="z" horiz-adv-x="460" d="M241 74 L424 464 L424 520 L45 520 L45 356 L145 356 L145 448 L208 448 L30 56 L30 0 L440 0 L440 164 L340 164 L340 72 L235 72 L241 74 L241 74 Z " />
</font>
</svg>
